<svg id="Layer_1" enable-background="new 0 0 250 250" height="512" viewBox="0 0 250 250" width="512" xmlns="http://www.w3.org/2000/svg"><g clip-rule="evenodd" fill-rule="evenodd"><path d="m250.4 124.9c0 67.8-53.9 123-121.2 124.9-.1 0-.2 0-.3 0-.3 0-.5 0-.8 0-.7 0-1.4 0-2.1 0h-.1-1c-.9 0-1.8 0-2.7 0-67.5-1.8-121.7-57-121.7-125s54.1-123.1 121.6-124.8h2.7 1 .1 2.1.8.3c67.4 2 121.3 57.1 121.3 124.9z" fill="#5bb0f3"/><path d="m69.9 150-15.2 15.2 7.2 7.2 15.2-15.2zm-8-74.2-7.2 7.2 15.2 15.2 7.2-7.2zm-21.7 44.6v10.2h21.5v-10.2zm59.1 47.3v21.5h10.2v-21.5zm0-106.4v21.5h10.2v-21.5zm63.2-.5c-15.3 0-28.9 7.2-37.5 18.5-.3.4-.6.8-.9 1.3l.9.8 8.4 6.8c6.5-9.3 17.2-15.5 29.4-15.5 19.7 0 35.8 16.1 35.8 36s-16 36-35.8 36h-57c-.2 0-.4 0-.5 0-11.3 0-20.4-9.1-20.4-20.4s9.2-20.4 20.4-20.4c9.5 0 17.5 6.5 19.8 15.2.4 1.7.7 3.4.7 5.2h10.8c0-9.7-4.5-18.4-11.4-24.1-5.4-4.4-12.3-7.1-19.8-7.1-17.2 0-31.2 14-31.2 31.2s14 31.2 31.2 31.2h59.1c25.3-1 45.4-21.8 45.4-47.3-.1-26.3-21.3-47.4-47.4-47.4z" fill="#fff"/><path d="m250.4 124.9c0 67.8-53.9 123-121.2 124.9-.1 0-.2 0-.3 0-.3 0-.5 0-.8 0-.7 0-1.4 0-2.1 0h-.1-.9v-250h.8.1 2.1.8.3c67.4 2.2 121.3 57.3 121.3 125.1z" fill="#56a5db"/><g fill="#e1e1e1"><path d="m125.7 124.2c0-1.8-.2-3.5-.7-5.2v-18.9c7 5.7 11.4 14.4 11.4 24.1z"/><path d="m209.8 108.1c0 25.5-20.2 46.3-45.4 47.3h-39.4v-10.8h37.8c19.7 0 35.8-16.1 35.8-36s-16-36-35.8-36c-12.2 0-22.9 6.1-29.4 15.5l-8.4-6.8v-2c8.6-11.2 22.2-18.5 37.5-18.5 26.1 0 47.3 21.1 47.3 47.3z"/></g></g></svg>